<svg xmlns="http://www.w3.org/2000/svg" width="640" height="600" viewBox="0 0 640 600" role="img" aria-labelledby="title desc"><title id="title">Merunex — Full-stack developer</title><desc id="desc">Turning ideas into working systems. Web applications, backend systems, and AI integrations.</desc><defs>
  <linearGradient id="bg" x1="0" y1="0" x2="1" y2="1"><stop stop-color="#141524"/><stop offset=".57" stop-color="#10111d"/><stop offset="1" stop-color="#172132"/></linearGradient>
  <linearGradient id="edge" x1="0" y1="0" x2="1" y2="1"><stop stop-color="#b6a4ff"/><stop offset=".5" stop-color="#7976df"/><stop offset="1" stop-color="#7adac9"/></linearGradient>
  <linearGradient id="tile" x1="0" y1="0" x2=".8" y2="1"><stop stop-color="#7773ca" stop-opacity=".5"/><stop offset="1" stop-color="#2b324b" stop-opacity=".85"/></linearGradient>
  <linearGradient id="slab" x1="0" y1="0" x2="1" y2="1"><stop stop-color="#41426a"/><stop offset="1" stop-color="#20293c"/></linearGradient>
  <radialGradient id="halo"><stop stop-color="#9080f4" stop-opacity=".18"/><stop offset="1" stop-color="#9080f4" stop-opacity="0"/></radialGradient>
  <pattern id="grid" width="32" height="32" patternUnits="userSpaceOnUse"><path d="M32 0H0V32" fill="none" stroke="#a9a3e8" stroke-opacity=".045"/></pattern>
</defs><rect x=".5" y=".5" width="639" height="599" rx="24" fill="url(#bg)" stroke="#343249"/><rect x="1" y="1" width="638" height="598" rx="24" fill="url(#grid)"/><rect x="42" y="46" width="6" height="6" rx="1" fill="#baa7ff"/><text x="61" y="55" fill="#c7bcf3" font-family="Arial, Helvetica, sans-serif" font-size="14" font-weight="600" letter-spacing="2.8">FULL-STACK DEVELOPER</text><text x="37" y="171" fill="#f3f0ff" font-family="Arial, Helvetica, sans-serif" font-size="104" font-weight="700" letter-spacing="-6">Merunex</text><circle cx="456" cy="164" r="9" fill="#ac96fc"/><text x="42" y="223" fill="#c4c3d5" font-family="Arial, Helvetica, sans-serif" font-size="23" font-weight="400">Turning ideas into working systems.</text><g transform="translate(-349 259) scale(.7)"><g transform="translate(774 23)"><ellipse cx="180" cy="162" rx="242" ry="196" fill="url(#halo)"/><g fill="none" stroke="#8d8fb6" stroke-width="1" opacity=".22"><ellipse cx="182" cy="180" rx="173" ry="110" transform="rotate(-27 182 180)"/><ellipse cx="182" cy="180" rx="186" ry="125" transform="rotate(25 182 180)"/><path d="M180 2V16M180 341V355M-8 180H6M358 180H372"/></g><path d="M182 47V320" stroke="#ada0ef" stroke-opacity=".4" stroke-dasharray="3 8"/><g transform="translate(0 135)" opacity="1"><path d="M65 135L176 75Q182 72 188 75L300 135V151Q300 157 294 160L189 218Q182 222 175 218L71 161Q65 158 65 152Z" fill="#181e30" stroke="#76cdbc" stroke-opacity=".45"/><path d="M71 127L176 69Q182 66 188 69L294 127Q306 134 294 141L188 199Q182 203 176 199L71 141Q59 134 71 127Z" fill="url(#slab)" stroke="#76cdbc" stroke-width="1.4"/><path d="M82 135L182 190L282 135" fill="none" stroke="#e2d7ff" stroke-opacity=".12"/><path d="M110 154L145 173M155 179L168 186" stroke="#76cdbc" stroke-width="2.5" stroke-linecap="round" opacity=".8"/></g><g transform="translate(0 79)" opacity="1"><path d="M65 135L176 75Q182 72 188 75L300 135V151Q300 157 294 160L189 218Q182 222 175 218L71 161Q65 158 65 152Z" fill="#181e30" stroke="#9294e8" stroke-opacity=".45"/><path d="M71 127L176 69Q182 66 188 69L294 127Q306 134 294 141L188 199Q182 203 176 199L71 141Q59 134 71 127Z" fill="url(#slab)" stroke="#9294e8" stroke-width="1.4"/><path d="M82 135L182 190L282 135" fill="none" stroke="#e2d7ff" stroke-opacity=".12"/><path d="M110 154L145 173M155 179L168 186" stroke="#9294e8" stroke-width="2.5" stroke-linecap="round" opacity=".8"/></g><g transform="translate(0 22)" opacity="1"><path d="M65 135L176 75Q182 72 188 75L300 135V151Q300 157 294 160L189 218Q182 222 175 218L71 161Q65 158 65 152Z" fill="#181e30" stroke="#bfaaff" stroke-opacity=".45"/><path d="M71 127L176 69Q182 66 188 69L294 127Q306 134 294 141L188 199Q182 203 176 199L71 141Q59 134 71 127Z" fill="url(#tile)" stroke="#bfaaff" stroke-width="1.4"/><path d="M82 135L182 190L282 135" fill="none" stroke="#e2d7ff" stroke-opacity=".12"/><g transform="matrix(.86 .47 -.86 .47 182 135)" stroke="#e6ddff" stroke-width="5" fill="none" stroke-linecap="round" stroke-linejoin="round"><path d="M-23-13L-39 0L-23 13M23-13L39 0L23 13M9-24L-9 24"/></g></g><g fill="#141826" stroke="#b8a6ff" stroke-width="1.5"><circle cx="47" cy="104" r="5"/><circle cx="329" cy="236" r="5"/></g><circle cx="100" cy="311" r="4" fill="#90e5d3"/><path d="M303 147H330L343 134M63 255H38L23 270" fill="none" stroke="#8f8eb3" stroke-opacity=".6"/></g></g><path d="M42 550H598" stroke="#a49ccb" stroke-opacity=".22"/><text x="42" y="576" fill="#a4a4bf" font-family="Courier New, monospace" font-size="14" font-weight="400" letter-spacing="1">WEB / BACKEND / AI</text><text x="476" y="576" fill="#a4a4bf" font-family="Courier New, monospace" font-size="13" font-weight="400" letter-spacing="1">MERUNEX</text></svg>